<svg width="28" height="38" viewBox="0 0 28 38" fill="none" xmlns="http://www.w3.org/2000/svg">
<path d="M8.17833 16.1609H7.077L6.47617 20.3536H7.45383C8.1025 20.3536 8.5855 20.1874 8.90283 19.8564C9.22017 19.5239 9.43367 18.9714 9.5445 18.1955C9.65183 17.4514 9.60283 16.9257 9.39983 16.6201C9.19567 16.3145 8.78967 16.1609 8.17833 16.1609ZM14 9.00586C6.2685 9.00586 0 13.4804 0 18.9999C0 24.5194 6.2685 28.9954 14 28.9954C21.7315 28.9954 28 24.5194 28 18.9999C28 13.4804 21.7315 9.00586 14 9.00586ZM10.1967 20.8033C9.89217 21.1991 9.52583 21.4968 9.12683 21.6757C8.73483 21.8467 8.23433 21.9354 7.62767 21.9354H6.24983L5.86833 24.5969H4.26067L5.69567 14.5808H8.78733C9.71717 14.5808 10.395 14.9117 10.822 15.5751C11.249 16.2369 11.3773 17.1616 11.207 18.3491C11.1418 18.819 11.0216 19.2717 10.8512 19.6902C10.6843 20.0939 10.4662 20.466 10.1967 20.8033ZM14.8913 21.9354L15.5248 17.5036C15.5983 17.0001 15.5703 16.6549 15.4455 16.4729C15.3207 16.2892 15.0535 16.1974 14.644 16.1974H13.37L12.5487 21.9369H10.9527L12.3877 11.9192H13.9825L13.601 14.5824H15.022C15.9168 14.5824 16.5328 14.7945 16.8723 15.2173C17.2118 15.64 17.3133 16.3256 17.1792 17.274L16.5118 21.9354H14.8913ZM23.7545 18.3491C23.6903 18.8194 23.5701 19.2723 23.3987 19.6902C23.2318 20.0939 23.0137 20.466 22.7442 20.8033C22.4395 21.1979 22.0741 21.4959 21.6743 21.6757C21.2823 21.8467 20.7818 21.9354 20.174 21.9354H18.7973L18.4158 24.5985H16.8082L18.2432 14.5824H21.3337C22.2635 14.5824 22.9413 14.9133 23.3683 15.5767C23.7953 16.2369 23.9248 17.1616 23.7545 18.3491ZM20.727 16.1609H19.6268L19.0248 20.3536H20.0025C20.6523 20.3536 21.1353 20.1874 21.4515 19.8564C21.7688 19.5239 21.9823 18.9714 22.0943 18.1955C22.2017 17.4514 22.1515 16.9257 21.9485 16.6201C21.7455 16.3145 21.3372 16.1609 20.727 16.1609Z" fill="white"/>
</svg>
