<svg width="28" height="28" viewBox="0 0 28 28" fill="none" xmlns="http://www.w3.org/2000/svg">
<path d="M14 28C21.732 28 28 21.732 28 14C28 6.26801 21.732 0 14 0C6.26801 0 0 6.26801 0 14C0 21.732 6.26801 28 14 28Z" fill="#4353FF"/>
<path d="M18.1142 12.3384L16.8455 16.3372C16.8455 16.0309 15.9705 9.39844 15.9705 9.39844C13.958 9.39844 12.8905 10.8247 12.3305 12.3384L10.7817 16.3459C10.7817 16.0572 10.563 12.3734 10.563 12.3734C10.4883 11.576 10.1237 10.8336 9.53833 10.2869C8.95295 9.74027 8.18741 9.42725 7.38672 9.40719L9.03172 19.4522C11.1317 19.4522 12.2692 18.0259 12.8555 16.5122L14.168 13.0997C14.168 13.2397 15.043 19.4522 15.043 19.4522C15.9017 19.4511 16.7377 19.1766 17.43 18.6684C18.1222 18.1602 18.6346 17.4449 18.893 16.6259L21.868 9.39844C19.768 9.39844 18.6655 10.8247 18.1055 12.3384H18.1142Z" fill="white"/>
</svg>
