<svg width="28" height="32" viewBox="0 0 28 32" fill="none" xmlns="http://www.w3.org/2000/svg">
<path d="M24.2454 5.97178C24.1308 5.96089 21.6839 5.77941 21.6839 5.77941C21.6839 5.77941 19.9832 4.08333 19.797 3.89667C19.6104 3.70896 19.2459 3.76496 19.1038 3.808C19.0836 3.8137 18.733 3.92311 18.1528 4.102C17.5845 2.45985 16.5833 0.950963 14.8208 0.950963C14.7721 0.950963 14.7218 0.953037 14.671 0.956148C14.1701 0.290889 13.5489 0 13.0122 0C8.90607 0 6.944 5.15978 6.32904 7.78193C4.73304 8.27763 3.59852 8.63126 3.45541 8.67793C2.56304 8.95896 2.53556 8.98696 2.41993 9.83007C2.33074 10.4684 0 28.5818 0 28.5818L18.1596 32.0009L28 29.861C28 29.861 24.5461 6.3923 24.5244 6.23104C24.5026 6.0703 24.3616 5.98111 24.2454 5.97178ZM14.5361 5.04933C14.5361 5.11104 14.5351 5.16911 14.5351 5.2277C13.5354 5.53933 12.4507 5.87637 11.3613 6.216C11.9726 3.84637 13.1175 2.70044 14.1198 2.26852C14.3713 2.90422 14.5361 3.81785 14.5361 5.04933ZM12.8987 1.10756C13.0781 1.10756 13.2554 1.1677 13.4265 1.28644C12.11 1.90815 10.7001 3.47667 10.1039 6.60696C9.23326 6.87763 8.38289 7.14311 7.59526 7.38785C8.29319 4.99904 9.94933 1.10756 12.8987 1.10756ZM13.6064 15.0619C13.6064 15.0619 12.5435 14.4921 11.2415 14.4921C9.33022 14.4921 9.23378 15.6971 9.23378 15.9999C9.23378 17.6566 13.5307 18.2918 13.5307 22.1719C13.5307 25.2249 11.605 27.1901 9.00615 27.1901C5.88881 27.1901 4.29385 25.2399 4.29385 25.2399L5.12815 22.4684C5.12815 22.4684 6.76667 23.8835 8.15111 23.8835C9.05333 23.8835 9.42096 23.1679 9.42096 22.6458C9.42096 20.4846 5.89556 20.3881 5.89556 16.8368C5.89556 13.8496 8.02978 10.9563 12.3397 10.9563C13.9984 10.9563 14.8198 11.4349 14.8198 11.4349L13.6064 15.0619ZM15.6126 4.89274C15.6126 4.78333 15.6136 4.67652 15.6136 4.55881C15.6136 3.53941 15.4721 2.71756 15.246 2.0663C16.1544 2.17985 16.7596 3.21896 17.149 4.41415C16.6932 4.55726 16.1747 4.718 15.6126 4.89274Z" fill="#95C675"/>
<path d="M24.2454 5.97178C24.1308 5.96089 21.6839 5.77941 21.6839 5.77941C21.6839 5.77941 19.9832 4.08333 19.797 3.89667C19.6104 3.70896 19.2459 3.76496 19.1038 3.808C19.0836 3.8137 18.733 3.92311 18.1528 4.102C17.5845 2.45985 16.5833 0.950963 14.8208 0.950963C14.7721 0.950963 14.7218 0.953037 14.671 0.956148C14.1701 0.290889 13.5489 0 13.0122 0C8.90607 0 7.89289 5.15978 7.27793 7.78193C5.68193 8.27763 4.45719 11.0066 4.31252 11.0522C3.42119 11.3333 3.3937 11.3613 3.27756 12.2049C3.18785 12.8427 0 28.5818 0 28.5818L18.1596 32.0009L28 29.861C28 29.861 24.5461 6.3923 24.5244 6.23104C24.5026 6.0703 24.3616 5.98111 24.2454 5.97178ZM14.5361 5.04933C14.5361 5.11104 14.5351 5.16911 14.5351 5.2277C13.5354 5.53933 12.4507 5.87637 11.3613 6.216C11.9726 3.84637 13.1175 2.70044 14.1198 2.26852C14.3713 2.90422 14.5361 3.81785 14.5361 5.04933ZM12.8987 1.10756C13.0781 1.10756 13.2554 1.1677 13.4265 1.28644C12.11 1.90815 10.7001 3.47667 10.1039 6.60696C9.23326 6.87763 8.38289 7.14311 7.59526 7.38785C8.29319 4.99904 9.94933 1.10756 12.8987 1.10756ZM13.6064 15.0619C13.6064 15.0619 12.5435 14.4921 11.2415 14.4921C9.33022 14.4921 9.23378 15.6971 9.23378 15.9999C9.23378 17.6566 13.5307 18.2918 13.5307 22.1719C13.5307 25.2249 11.605 27.1901 9.00615 27.1901C5.88881 27.1901 4.29385 25.2399 4.29385 25.2399L5.12815 22.4684C5.12815 22.4684 6.76667 23.8835 8.15111 23.8835C9.05333 23.8835 9.42096 23.1679 9.42096 22.6458C9.42096 20.4846 5.89556 20.3881 5.89556 16.8368C5.89556 13.8496 8.02978 10.9563 12.3397 10.9563C13.9984 10.9563 14.8198 11.4349 14.8198 11.4349L13.6064 15.0619ZM15.6126 4.89274C15.6126 4.78333 15.6136 4.67652 15.6136 4.55881C15.6136 3.53941 15.4721 2.71756 15.246 2.0663C16.1544 2.17985 16.7596 3.21896 17.149 4.41415C16.6932 4.55726 16.1747 4.718 15.6126 4.89274Z" fill="#79B259"/>
<path d="M18.1579 31.9995L27.9984 29.8601C27.9984 29.8601 24.5445 6.3914 24.5228 6.23014C24.501 6.06888 24.3605 5.98022 24.2438 5.97088C24.1292 5.96 21.6823 5.77851 21.6823 5.77851C21.6823 5.77851 19.9816 4.08244 19.7954 3.89577C19.6959 3.79518 19.5471 3.76666 19.4065 3.76562C19.0332 4.39822 19.1105 5.59962 19.1105 5.59962L17.9531 31.9606L18.1579 31.9995Z" fill="#55932C"/>
<path d="M14.8205 0.950963C14.7717 0.950963 14.7214 0.953037 14.6706 0.956148C14.1697 0.290889 13.5485 0 13.0119 0C8.92231 0 6.95868 5.11933 6.33594 7.7503L7.60475 7.35674C8.30683 4.96689 9.96142 1.10704 12.8983 1.10704C13.0777 1.10704 13.255 1.16719 13.4262 1.28593C12.1133 1.90556 10.707 3.46837 10.1087 6.58156L11.3687 6.19267C11.9816 3.83807 13.1218 2.69837 14.1205 2.268C14.3714 2.90422 14.5368 3.81733 14.5368 5.04881C14.5368 5.10482 14.5368 5.15822 14.5358 5.21163L15.6133 4.87822C15.6133 4.77452 15.6143 4.67081 15.6143 4.5583C15.6143 3.53889 15.4728 2.71704 15.2467 2.06578C16.152 2.17881 16.7566 3.21326 17.1455 4.40326L18.1504 4.09163C17.5805 2.45415 16.5798 0.950963 14.8205 0.950963Z" fill="#4A7A2B"/>
<path d="M22.0935 5.80962C21.8477 5.79044 21.6823 5.77851 21.6823 5.77851C21.6823 5.77851 19.9816 4.08244 19.7954 3.89577C19.6959 3.79518 19.5471 3.76666 19.4065 3.76562C19.0332 4.39822 19.1105 5.59962 19.1105 5.59962L17.9531 31.9606L18.1585 31.9995L23.3945 30.8608L22.0935 5.80962Z" fill="#4C822A"/>
</svg>
